<?xml version="1.0" encoding="iso-8859-1"?>
<!-- Generator: Adobe Illustrator 19.0.0, SVG Export Plug-In . SVG Version: 6.00 Build 0)  -->
<svg version="1.1" id="Layer_1" xmlns="http://www.w3.org/2000/svg" xmlns:xlink="http://www.w3.org/1999/xlink" x="0px" y="0px"
	 viewBox="0 0 512 512" style="enable-background:new 0 0 512 512;" xml:space="preserve">
<path style="fill:#CEA656;" d="M467.478,389.565H44.522C19.933,389.565,0,369.632,0,345.043V44.522C0,19.933,19.933,0,44.522,0
	h422.957C492.066,0,512,19.933,512,44.522v300.522C512,369.632,492.066,389.565,467.478,389.565z"/>
<path style="fill:#697900;" d="M445.217,345.043H66.783c-12.295,0-22.261-9.966-22.261-22.261v-256
	c0-12.295,9.966-22.261,22.261-22.261h378.435c12.295,0,22.261,9.966,22.261,22.261v256
	C467.478,335.077,457.512,345.043,445.217,345.043z"/>
<path style="fill:#FF5200;" d="M289.391,434.087V512H89.043v-77.913c0-55.325,44.849-100.174,100.174-100.174l0,0
	C244.542,333.913,289.391,378.762,289.391,434.087z"/>
<path style="fill:#CC0000;" d="M289.391,434.087V512H89.043v-55.652h44.522c43.03,0,77.913-34.883,77.913-77.913l0,0
	c0-15.699-3.615-30.553-10.052-43.779C250.991,340.678,289.391,382.896,289.391,434.087z"/>
<path style="fill:#CE7F49;" d="M228.174,321.357v18.121c0,21.515-17.441,38.957-38.957,38.957l0,0
	c-21.515,0-38.957-17.441-38.957-38.957v-18.121c-16.846-12.123-27.826-31.886-27.826-54.226c0-36.883,29.9-66.783,66.783-66.783
	S256,230.248,256,267.13C256,289.47,245.02,309.234,228.174,321.357z"/>
<path style="fill:#FFC02C;" d="M207.663,267.13c-9.169,25.935-33.892,44.522-62.967,44.522c-1.837,0-3.651-0.095-5.451-0.24
	c-10.453-11.787-16.81-27.287-16.81-44.281c0-36.883,29.9-66.783,66.783-66.783c0.952,0,1.897,0.027,2.837,0.071
	C227.62,201.907,256,231.199,256,267.13H207.663z"/>
<path style="fill:#FFE52C;" d="M89.043,244.87c0-24.588,19.933-44.522,44.522-44.522h53.426v22.261
	c0,24.588-19.934,44.522-44.522,44.522H89.043V244.87z"/>
<path style="fill:#28749E;" d="M456.348,434.087V512H256v-77.913c0-55.325,44.849-100.174,100.174-100.174l0,0
	C411.499,333.913,456.348,378.762,456.348,434.087z"/>
<path style="fill:#E7EDE2;" d="M358.957,100.174c0,4.61-3.738,8.348-8.348,8.348H161.391c-4.61,0-8.348-3.738-8.348-8.348
	c0-4.61,3.738-8.348,8.348-8.348h189.217C355.219,91.826,358.957,95.564,358.957,100.174z M312.209,136.348h-77.913
	c-4.61,0-8.348,3.738-8.348,8.348c0,4.61,3.738,8.348,8.348,8.348h77.913c4.61,0,8.348-3.738,8.348-8.348
	C320.557,140.085,316.819,136.348,312.209,136.348z M200.904,136.348h-1.113c-4.61,0-8.348,3.738-8.348,8.348
	c0,4.61,3.738,8.348,8.348,8.348h1.113c4.61,0,8.348-3.738,8.348-8.348C209.252,140.085,205.515,136.348,200.904,136.348z"/>
<path style="fill:#2C4D67;" d="M456.348,434.087V512H256v-55.652h44.522c43.03,0,77.913-34.883,77.913-77.913l0,0
	c0-15.699-3.615-30.553-10.052-43.779C417.948,340.678,456.348,382.896,456.348,434.087z"/>
<path style="fill:#CE7F49;" d="M395.13,321.357v18.121c0,21.515-17.441,38.957-38.957,38.957l0,0
	c-21.515,0-38.957-17.441-38.957-38.957v-18.121c-16.846-12.123-27.826-31.886-27.826-54.226c0-36.883,29.9-66.783,66.783-66.783
	s66.783,29.9,66.783,66.783C422.957,289.47,411.976,309.234,395.13,321.357z"/>
<path style="fill:#602812;" d="M422.957,267.13H289.391c0-36.883,29.9-66.783,66.783-66.783S422.957,230.248,422.957,267.13z"/>
<path style="fill:#823E20;" d="M356.174,200.348c1.837,0,3.651,0.095,5.451,0.24c10.453,11.787,16.81,27.288,16.81,44.281
	c0,36.883-29.9,66.783-66.783,66.783c-1.837,0-3.651-0.095-5.451-0.24c-10.453-11.787-16.81-27.288-16.81-44.281
	C289.391,230.248,319.291,200.348,356.174,200.348z"/>
<path style="fill:#183244;" d="M495.304,503.652c0,4.61-3.738,8.348-8.348,8.348H41.739c-4.61,0-8.348-3.738-8.348-8.348
	s3.738-8.348,8.348-8.348h445.217C491.567,495.304,495.304,499.042,495.304,503.652z M9.461,495.304H8.348
	c-4.61,0-8.348,3.738-8.348,8.348S3.738,512,8.348,512h1.113c4.61,0,8.348-3.738,8.348-8.348S14.071,495.304,9.461,495.304z"/>
<g>
</g>
<g>
</g>
<g>
</g>
<g>
</g>
<g>
</g>
<g>
</g>
<g>
</g>
<g>
</g>
<g>
</g>
<g>
</g>
<g>
</g>
<g>
</g>
<g>
</g>
<g>
</g>
<g>
</g>
</svg>
