<?xml version="1.0" encoding="iso-8859-1"?>
<!-- Generator: Adobe Illustrator 19.0.0, SVG Export Plug-In . SVG Version: 6.00 Build 0)  -->
<svg version="1.1" id="Capa_1" xmlns="http://www.w3.org/2000/svg" xmlns:xlink="http://www.w3.org/1999/xlink" x="0px" y="0px"
	 viewBox="0 0 416 416" style="enable-background:new 0 0 416 416;" xml:space="preserve">
<g>
	<rect x="32.001" y="32" style="fill:#222222;" width="256" height="64"/>
	<rect x="32.001" y="352" style="fill:#222222;" width="256" height="64"/>
</g>
<rect x="64.001" y="96" style="fill:#FACE5A;" width="192" height="256"/>
<path style="fill:#565656;" d="M351.999,128h-96v32h32v32h-32v128h96c17.6,0,32-14.4,32-32V160
	C383.999,142.4,369.599,128,351.999,128z M351.999,192h-32v-32h32V192z"/>
<g>
	<rect x="128.001" style="fill:#676767;" width="64" height="32"/>
	<rect x="256.001" y="224" style="fill:#676767;" width="96" height="64"/>
</g>
<path style="fill:#DEA02B;" d="M63.919,96c0.08,0,192.04,192.04,192.04,192.04V96C255.959,96,63.839,96,63.919,96z"/>
<g>
</g>
<g>
</g>
<g>
</g>
<g>
</g>
<g>
</g>
<g>
</g>
<g>
</g>
<g>
</g>
<g>
</g>
<g>
</g>
<g>
</g>
<g>
</g>
<g>
</g>
<g>
</g>
<g>
</g>
</svg>
